<svg xmlns="http://www.w3.org/2000/svg" width="1024" height="1024" viewBox="0 0 1024 1024">
  <!-- Full-bleed ink cropped flush by the iOS mask; the paper cutout is a
       true superellipse (n=5) concentric with Apple's squircle so the black
       band stays even through the corners. Fold drawn on top. -->
  <rect width="1024" height="1024" fill="#1c1813"/>
  <path d="M 980.0 512.0 L 979.9 618.2 L 979.8 652.1 L 979.5 676.8 L 979.1 696.8 L 978.6 714.0 L 978.0 729.2 L 977.2 742.9 L 976.4 755.4 L 975.4 767.0 L 974.3 777.8 L 973.1 787.8 L 971.8 797.3 L 970.4 806.3 L 968.9 814.9 L 967.2 823.0 L 965.4 830.7 L 963.5 838.1 L 961.5 845.2 L 959.3 851.9 L 957.1 858.4 L 954.7 864.7 L 952.1 870.6 L 949.5 876.4 L 946.7 881.9 L 943.8 887.3 L 940.7 892.4 L 937.5 897.4 L 934.2 902.1 L 930.7 906.7 L 927.1 911.1 L 923.3 915.3 L 919.4 919.4 L 915.3 923.3 L 911.1 927.1 L 906.7 930.7 L 902.1 934.2 L 897.4 937.5 L 892.4 940.7 L 887.3 943.8 L 881.9 946.7 L 876.4 949.5 L 870.6 952.1 L 864.7 954.7 L 858.4 957.1 L 851.9 959.3 L 845.2 961.5 L 838.1 963.5 L 830.7 965.4 L 823.0 967.2 L 814.9 968.9 L 806.3 970.4 L 797.3 971.8 L 787.8 973.1 L 777.8 974.3 L 767.0 975.4 L 755.4 976.4 L 742.9 977.2 L 729.2 978.0 L 714.0 978.6 L 696.8 979.1 L 676.8 979.5 L 652.1 979.8 L 618.2 979.9 L 512.0 980.0 L 405.8 979.9 L 371.9 979.8 L 347.2 979.5 L 327.2 979.1 L 310.0 978.6 L 294.8 978.0 L 281.1 977.2 L 268.6 976.4 L 257.0 975.4 L 246.2 974.3 L 236.2 973.1 L 226.7 971.8 L 217.7 970.4 L 209.1 968.9 L 201.0 967.2 L 193.3 965.4 L 185.9 963.5 L 178.8 961.5 L 172.1 959.3 L 165.6 957.1 L 159.3 954.7 L 153.4 952.1 L 147.6 949.5 L 142.1 946.7 L 136.7 943.8 L 131.6 940.7 L 126.6 937.5 L 121.9 934.2 L 117.3 930.7 L 112.9 927.1 L 108.7 923.3 L 104.6 919.4 L 100.7 915.3 L 96.9 911.1 L 93.3 906.7 L 89.8 902.1 L 86.5 897.4 L 83.3 892.4 L 80.2 887.3 L 77.3 881.9 L 74.5 876.4 L 71.9 870.6 L 69.3 864.7 L 66.9 858.4 L 64.7 851.9 L 62.5 845.2 L 60.5 838.1 L 58.6 830.7 L 56.8 823.0 L 55.1 814.9 L 53.6 806.3 L 52.2 797.3 L 50.9 787.8 L 49.7 777.8 L 48.6 767.0 L 47.6 755.4 L 46.8 742.9 L 46.0 729.2 L 45.4 714.0 L 44.9 696.8 L 44.5 676.8 L 44.2 652.1 L 44.1 618.2 L 44.0 512.0 L 44.1 405.8 L 44.2 371.9 L 44.5 347.2 L 44.9 327.2 L 45.4 310.0 L 46.0 294.8 L 46.8 281.1 L 47.6 268.6 L 48.6 257.0 L 49.7 246.2 L 50.9 236.2 L 52.2 226.7 L 53.6 217.7 L 55.1 209.1 L 56.8 201.0 L 58.6 193.3 L 60.5 185.9 L 62.5 178.8 L 64.7 172.1 L 66.9 165.6 L 69.3 159.3 L 71.9 153.4 L 74.5 147.6 L 77.3 142.1 L 80.2 136.7 L 83.3 131.6 L 86.5 126.6 L 89.8 121.9 L 93.3 117.3 L 96.9 112.9 L 100.7 108.7 L 104.6 104.6 L 108.7 100.7 L 112.9 96.9 L 117.3 93.3 L 121.9 89.8 L 126.6 86.5 L 131.6 83.3 L 136.7 80.2 L 142.1 77.3 L 147.6 74.5 L 153.4 71.9 L 159.3 69.3 L 165.6 66.9 L 172.1 64.7 L 178.8 62.5 L 185.9 60.5 L 193.3 58.6 L 201.0 56.8 L 209.1 55.1 L 217.7 53.6 L 226.7 52.2 L 236.2 50.9 L 246.2 49.7 L 257.0 48.6 L 268.6 47.6 L 281.1 46.8 L 294.8 46.0 L 310.0 45.4 L 327.2 44.9 L 347.2 44.5 L 371.9 44.2 L 405.8 44.1 L 512.0 44.0 L 618.2 44.1 L 652.1 44.2 L 676.8 44.5 L 696.8 44.9 L 714.0 45.4 L 729.2 46.0 L 742.9 46.8 L 755.4 47.6 L 767.0 48.6 L 777.8 49.7 L 787.8 50.9 L 797.3 52.2 L 806.3 53.6 L 814.9 55.1 L 823.0 56.8 L 830.7 58.6 L 838.1 60.5 L 845.2 62.5 L 851.9 64.7 L 858.4 66.9 L 864.7 69.3 L 870.6 71.9 L 876.4 74.5 L 881.9 77.3 L 887.3 80.2 L 892.4 83.3 L 897.4 86.5 L 902.1 89.8 L 906.7 93.3 L 911.1 96.9 L 915.3 100.7 L 919.4 104.6 L 923.3 108.7 L 927.1 112.9 L 930.7 117.3 L 934.2 121.9 L 937.5 126.6 L 940.7 131.6 L 943.8 136.7 L 946.7 142.1 L 949.5 147.6 L 952.1 153.4 L 954.7 159.3 L 957.1 165.6 L 959.3 172.1 L 961.5 178.8 L 963.5 185.9 L 965.4 193.3 L 967.2 201.0 L 968.9 209.1 L 970.4 217.7 L 971.8 226.7 L 973.1 236.2 L 974.3 246.2 L 975.4 257.0 L 976.4 268.6 L 977.2 281.1 L 978.0 294.8 L 978.6 310.0 L 979.1 327.2 L 979.5 347.2 L 979.8 371.9 L 979.9 405.8 Z" fill="#faf6ef"/>
  <path d="M 736 44 L 980 44 L 980 288 Z" fill="#1c1813"/>
  <path d="M 736 44 V 218 Q 736 288 806 288 H 980 Z" fill="#f1ebdf" stroke="#1c1813" stroke-width="34" stroke-linejoin="round"/>
</svg>
